<?xml version="1.0" standalone="no"?>
<!DOCTYPE svg PUBLIC "-//W3C//DTD SVG 20010904//EN"
 "http://www.w3.org/TR/2001/REC-SVG-20010904/DTD/svg10.dtd">
<svg version="1.0" xmlns="http://www.w3.org/2000/svg"
 width="232.000000pt" height="218.000000pt" viewBox="0 0 232.000000 218.000000"
 preserveAspectRatio="xMidYMid meet">
<metadata>
Created by potrace 1.15, written by Peter Selinger 2001-2017
</metadata>
<g transform="translate(0.000000,218.000000) scale(0.100000,-0.100000)"
fill="#000000" stroke="none">
<path d="M1988 2041 c-14 -16 -31 -51 -38 -77 -18 -69 -34 -79 -70 -43 -49 49
-139 33 -110 -20 6 -12 21 -28 34 -37 18 -11 25 -27 29 -62 7 -69 23 -122 41
-135 14 -11 13 -18 -9 -66 -82 -175 -283 -352 -404 -355 -35 -1 -36 -1 -42 49
-70 529 -56 491 -179 481 -41 -3 -84 -9 -95 -11 -16 -4 -24 4 -40 37 -31 65
-62 82 -156 87 l-79 3 -42 -41 -41 -42 -37 30 c-47 37 -110 55 -169 46 -77
-12 -131 -86 -131 -182 0 -20 -5 -33 -12 -33 -50 -1 -212 -31 -224 -41 -19
-15 -18 -16 21 -266 l27 -171 -76 -92 c-45 -54 -76 -100 -76 -113 0 -13 26
-50 60 -87 37 -41 55 -69 49 -75 -5 -5 -9 -19 -9 -32 0 -16 -6 -23 -19 -23
-11 0 -23 -9 -26 -21 -4 -12 -16 -30 -26 -40 -18 -18 -18 -22 -4 -48 18 -35
57 -63 108 -78 33 -10 44 -8 82 10 24 12 50 32 56 44 7 13 16 23 20 23 3 0 24
-19 44 -42 133 -150 390 -418 405 -423 10 -3 121 13 247 35 125 23 332 59 458
80 127 22 253 44 280 50 148 30 179 40 198 58 38 38 13 66 -261 289 -356 290
-341 277 -330 297 9 17 6 94 -8 189 -5 35 -4 37 21 37 38 0 121 37 190 85 98
69 180 166 239 283 23 46 30 52 57 52 21 0 32 6 36 18 2 9 19 26 36 37 18 11
38 34 46 51 l13 31 44 -15 c39 -13 47 -13 69 2 14 9 25 23 25 31 0 24 -45 46
-99 47 -28 1 -51 5 -51 9 0 4 24 15 53 23 84 24 111 70 62 102 -33 21 -60 11
-117 -44 -57 -55 -61 -44 -13 28 19 29 35 57 35 64 0 15 -20 36 -34 36 -6 0
-3 -5 7 -11 25 -15 21 -30 -22 -95 -22 -32 -37 -62 -35 -66 11 -17 33 -6 58
27 48 62 115 76 133 28 8 -21 -22 -43 -91 -63 -74 -23 -68 -44 14 -50 71 -5
90 -13 90 -36 0 -26 -45 -35 -91 -19 -51 18 -49 18 -49 0 0 -25 -60 -85 -85
-85 -13 0 -27 5 -30 10 -3 6 -17 7 -29 4 -33 -8 -76 45 -76 94 0 28 -8 44 -35
72 -32 33 -34 38 -20 50 25 21 93 -3 101 -36 3 -13 14 -29 24 -34 25 -13 40
-12 17 1 -18 11 -18 12 1 32 10 12 25 44 32 71 7 26 24 61 38 77 13 16 22 29
19 29 -3 0 -16 -13 -29 -29z m-987 -176 c21 -3 47 -17 63 -34 51 -53 73 -189
40 -252 -32 -63 -164 -90 -231 -49 -18 11 -33 23 -33 27 -4 129 -8 162 -22
189 -16 29 -16 33 1 60 30 49 79 76 126 68 11 -1 36 -5 56 -9z m-285 -27 c94
-63 133 -199 83 -288 -35 -63 -131 -93 -208 -65 -51 18 -63 30 -98 104 -22 45
-25 63 -20 117 8 108 58 163 148 164 36 0 58 -7 95 -32z m609 -81 c14 -11 22
-43 36 -148 10 -74 32 -235 48 -359 26 -187 29 -227 18 -238 -8 -7 -75 -21
-158 -32 -177 -23 -852 -118 -895 -126 -45 -8 -37 -45 -138 591 -13 85 -20
157 -16 165 6 10 43 20 115 31 58 8 108 13 109 10 2 -4 6 -18 10 -33 l6 -26
-90 -13 c-50 -6 -90 -15 -90 -19 0 -4 23 -149 50 -324 28 -175 50 -320 50
-323 0 -7 81 2 330 37 113 16 309 43 435 60 127 18 231 34 233 35 2 2 -15 133
-37 292 -23 159 -41 300 -41 313 0 47 -10 52 -85 40 -37 -6 -69 -9 -70 -8 -1
2 -5 17 -8 35 l-6 31 62 10 c90 14 111 14 132 -1z m0 -382 c37 -272 41 -325
26 -325 -5 0 -144 -18 -308 -41 -364 -50 -647 -87 -651 -84 -2 2 -87 544 -94
600 -3 32 6 36 118 48 l51 6 32 -50 c28 -42 39 -51 87 -65 84 -24 150 -9 211
48 l31 30 20 -20 c38 -38 155 -42 222 -7 40 21 70 70 70 116 l0 37 68 8 c66 9
67 9 74 -16 4 -14 23 -142 43 -285z m-1036 -347 c12 -76 21 -143 21 -150 0
-21 -60 -19 -91 3 -16 11 -45 40 -65 64 l-36 45 28 37 c41 55 116 144 119 141
2 -2 12 -65 24 -140z m1191 -100 c223 -179 540 -441 540 -447 0 -4 -57 -17
-127 -30 -71 -13 -261 -47 -423 -76 -649 -118 -586 -109 -612 -89 -13 10 -59
57 -102 104 -270 291 -327 357 -332 380 -4 14 -17 34 -31 46 l-24 20 488 71
c268 39 504 71 523 72 28 1 48 -9 100 -51z m-1086 -128 c26 -26 29 -105 5
-123 -8 -7 -18 -20 -22 -30 -10 -28 -94 -59 -138 -52 -44 8 -99 58 -99 91 0
45 53 19 66 -32 4 -13 15 -29 27 -35 19 -11 19 -10 -2 20 -42 59 -25 130 42
172 39 24 91 19 121 -11z m231 -295 c72 -77 154 -165 183 -196 29 -32 52 -65
52 -78 0 -18 -2 -20 -20 -9 -10 7 -18 14 -16 15 1 2 -34 40 -79 85 -45 46
-122 128 -170 183 -49 55 -96 107 -104 115 -38 35 -51 58 -45 75 6 16 11 14
37 -16 17 -19 89 -97 162 -174z m1405 -59 c0 -7 -6 -18 -12 -23 -18 -14 -170
-47 -408 -88 -113 -19 -281 -49 -375 -65 -199 -35 -185 -34 -185 -15 0 8 -6
15 -14 15 -23 0 -28 -18 -9 -29 16 -9 16 -10 -4 -11 -12 0 -26 6 -30 14 -4 7
-14 15 -22 17 -14 5 -2 7 594 114 204 36 386 70 405 74 51 13 60 13 60 -3z"/>
<path d="M1212 1446 c-73 -136 -252 -219 -439 -201 -141 13 -257 54 -326 115
-36 31 -37 34 -21 51 9 11 12 19 6 19 -17 0 -42 -42 -41 -70 2 -23 2 -23 6 -2
5 28 5 28 40 -5 24 -23 31 -41 41 -104 15 -101 46 -181 86 -224 28 -30 40 -35
77 -35 24 0 63 9 86 19 39 18 42 18 46 3 3 -11 5 -9 6 7 1 19 -3 22 -22 17
-15 -3 -28 1 -39 13 -9 10 -22 21 -29 23 -17 6 -16 98 0 141 l11 27 78 -6
c153 -13 284 31 382 126 41 40 88 116 78 125 -2 2 -14 -15 -26 -39z"/>
</g>
</svg>
