<svg id="Layer_1" data-name="Layer 1" xmlns="http://www.w3.org/2000/svg" xmlns:xlink="http://www.w3.org/1999/xlink" viewBox="0 0 550.31 386.4"><defs><style>.cls-1{fill:#e5e3e3;}.cls-2{fill:#a28571;}.cls-3{fill:#927564;}.cls-4{fill:#303040;}.cls-5{fill:#282934;}.cls-14,.cls-6{fill:#22232a;}.cls-6{opacity:0.42;}.cls-20,.cls-6{isolation:isolate;}.cls-7{fill:#363948;}.cls-8{fill:#353841;}.cls-9{fill:#717682;}.cls-10{fill:url(#linear-gradient);}.cls-11{fill:url(#linear-gradient-2);}.cls-12{fill:url(#linear-gradient-3);}.cls-13{fill:url(#linear-gradient-4);}.cls-15{fill:#ebc2b4;}.cls-16{fill:#a8735e;}.cls-17{fill:#976556;}.cls-18{fill:#855849;}.cls-19{fill:#774c41;}.cls-20{fill:#ab7d73;opacity:0.41;}.cls-21{fill:#38302d;}.cls-22{fill:#4d4442;}.cls-23{fill:#3d3533;}.cls-24{fill:#584e4c;}</style><linearGradient id="linear-gradient" x1="372.48" y1="-36.09" x2="378.98" y2="-36.09" gradientTransform="matrix(1, 0, 0, -1, -5.24, 166.4)" gradientUnits="userSpaceOnUse"><stop offset="0" stop-color="#fff"/><stop offset="0.2" stop-color="#c3c3c3" stop-opacity="0.76"/><stop offset="0.49" stop-color="#707070" stop-opacity="0.44"/><stop offset="0.73" stop-color="#343434" stop-opacity="0.2"/><stop offset="0.91" stop-color="#0e0e0e" stop-opacity="0.06"/><stop offset="1" stop-opacity="0"/></linearGradient><linearGradient id="linear-gradient-2" x1="378.9" y1="-37.9" x2="375.82" y2="-36.31" xlink:href="#linear-gradient"/><linearGradient id="linear-gradient-3" x1="373.63" y1="-60.34" x2="380.13" y2="-60.34" xlink:href="#linear-gradient"/><linearGradient id="linear-gradient-4" x1="380.06" y1="-62.1" x2="376.98" y2="-60.51" xlink:href="#linear-gradient"/></defs><title>desk6</title><path d="M48.8,120.1c-.2,36.3-.1,66.3.1,66.5s124.1.4,275.3.4H599V54H49Z" transform="translate(-48.69 -54)"/><ellipse class="cls-1" cx="284.16" cy="348.27" rx="246.15" ry="38.13"/><polygon class="cls-2" points="278.8 160.03 278.79 184.88 364.85 184.48 364.45 158.41 278.8 160.03"/><path class="cls-3" d="M334.87,229.17a144.27,144.27,0,0,0,25,2.73c13.26.61,32-6.93,41-2.11a20,20,0,0,0,12.71,1.6l-.62-19L327.78,214l-.61,17.57C328.15,230.1,331.61,228.6,334.87,229.17Z" transform="translate(-48.69 -54)"/><rect class="cls-4" x="286.43" y="159.42" width="5.73" height="24.24"/><rect class="cls-4" x="333.49" y="158.51" width="5.73" height="25.14"/><path class="cls-5" d="M335.12,229.17a12.42,12.42,0,0,0,5.63.81l.2-5.86a27.18,27.18,0,0,1-6.23-1.41Z" transform="translate(-48.69 -54)"/><path class="cls-5" d="M382.13,227.26s4.37-.3,5.77-.6v1.86s-4-.1-5.77.7Z" transform="translate(-48.69 -54)"/><path class="cls-5" d="M405.7,223l.06,8.22a9.18,9.18,0,0,0,5.67-.4V221.4A40.64,40.64,0,0,1,405.7,223Z" transform="translate(-48.69 -54)"/><rect class="cls-4" x="309.7" y="159.42" width="5.75" height="24.24"/><path class="cls-6" d="M374.36,204.28l-2.78,38.43a19.78,19.78,0,0,1-21.2,18.23l-.64-.06c-10.24-1.07-20.8-4-27.24-7.6l2-13.37Z" transform="translate(-48.69 -54)"/><path class="cls-6" d="M370.35,215.75s1.08,23,3.8,35.38a9.9,9.9,0,0,0,8.58,7.75c10.56,1.16,31.71,3.15,37.38.31L415.9,237Z" transform="translate(-48.69 -54)"/><path class="cls-7" d="M340.84,210.58s-9.45.87-16.62-2.57a3.53,3.53,0,0,0-1.15,3.15s14.35,3.66,17.77,2.31Z" transform="translate(-48.69 -54)"/><path class="cls-7" d="M397.56,212.3s15.48,1.16,22.07-3.15c0,0,2,2.59.86,3.73,0,0-15.19,4.3-22.64,2.87C397.85,215.75,395.85,214.6,397.56,212.3Z" transform="translate(-48.69 -54)"/><path class="cls-8" d="M374.93,203a4,4,0,1,1-4.14-3.88h0A4,4,0,0,1,374.93,203Z" transform="translate(-48.69 -54)"/><path class="cls-9" d="M374.5,202.49a4,4,0,1,1-4-4,4,4,0,0,1,4,4Z" transform="translate(-48.69 -54)"/><path class="cls-10" d="M373.74,202.49a3.25,3.25,0,1,1-3.25-3.24h0A3.25,3.25,0,0,1,373.74,202.49Z" transform="translate(-48.69 -54)"/><path class="cls-11" d="M369.53,204.68s3.47-.86,3.47-3.3c0,0,1.21,2.48-.86,3.47A2.21,2.21,0,0,1,369.53,204.68Z" transform="translate(-48.69 -54)"/><path class="cls-8" d="M376.08,227.26a4,4,0,1,1-4.13-3.9A4,4,0,0,1,376.08,227.26Z" transform="translate(-48.69 -54)"/><path class="cls-9" d="M375.65,226.72a4,4,0,1,1-4-4h0a4,4,0,0,1,4,4Z" transform="translate(-48.69 -54)"/><path class="cls-12" d="M374.89,226.72a3.26,3.26,0,1,1-3.27-3.24h0a3.24,3.24,0,0,1,3.26,3.23Z" transform="translate(-48.69 -54)"/><path class="cls-13" d="M370.69,228.87s3.46-.85,3.46-3.29c0,0,1.16,2.47-.85,3.47A2.19,2.19,0,0,1,370.69,228.87Z" transform="translate(-48.69 -54)"/><polygon class="cls-14" points="257.66 79.8 255.1 73.88 249.82 102.1 262.57 122.26 255.35 117.93 247.26 106.95 240.32 115.62 239.75 121.11 237.72 114.75 247.26 104.35 251.59 79.22 255.63 67.38 255.35 57.84 257.37 60.73 258.52 74.89 257.66 79.8"/><polygon class="cls-15" points="310.32 162.61 326.12 153.37 321.67 141.71 317.26 153.37 306.48 158.37 284.12 158.06 285.68 161.46 310.32 162.61"/><rect class="cls-16" x="65.9" y="168.96" width="432" height="181.8"/><path class="cls-17" d="M157.78,281.18c34-11.31,314-17.33,388.81-18.68V223h-432V404.75h14.12C127.34,385.37,122.66,292.88,157.78,281.18Z" transform="translate(-48.69 -54)"/><path class="cls-18" d="M96.27,208.79V220.1A10.68,10.68,0,0,0,107,230.81H553.88a7.11,7.11,0,0,0,7.11-7.1V205.22a7.12,7.12,0,0,0-7.11-7.11H107A10.7,10.7,0,0,0,96.27,208.79Z" transform="translate(-48.69 -54)"/><path class="cls-19" d="M139.46,215.08c-17.48-2.91-27.26-10.69-32.49-17h0a10.7,10.7,0,0,0-10.7,10.7h0v11.31A10.68,10.68,0,0,0,107,230.79H553.88a7.11,7.11,0,0,0,7.11-7.1h0a7.11,7.11,0,0,0-7.09-7.11h-.08C469.68,217.39,166.5,219.61,139.46,215.08Z" transform="translate(-48.69 -54)"/><path class="cls-20" d="M527.44,278.21s7.45,102.67-4.75,109.87c-7.69,4.54-56,4.71-90.55,4.22-21.46-.32-25.51-30.66-4.87-36.58,1.75-.5,3.58-1,5.51-1.44,49.16-11.72,44.07-14.62,58.45-37.43S495.48,263.34,527.44,278.21Z" transform="translate(-48.69 -54)"/><rect class="cls-21" x="195.09" y="135.88" width="181.73" height="8.49"/><polygon class="cls-22" points="194.52 135.88 174.14 0 388.14 0 376.81 135.88 194.52 135.88"/><path class="cls-23" d="M243.21,189.88H425.5l1.05-12.63-152.78-1s-18.11,4.53-21.51-36.24c-2.72-32.61-17.74-71.64-23.64-86.05h-5.78Z" transform="translate(-48.69 -54)"/><path class="cls-24" d="M358.7,56.26h73.6l-5.66,65.67s-2.32-30.57-14.73-35.1-11.32-17-23.78-18.11S358.7,56.26,358.7,56.26Z" transform="translate(-48.69 -54)"/></svg>