<svg id="Layer_1" data-name="Layer 1" xmlns="http://www.w3.org/2000/svg" xmlns:xlink="http://www.w3.org/1999/xlink" viewBox="0 0 426.04 365.34"><defs><style>.cls-1{fill:#e5e3e3;}.cls-2{fill:#a28571;}.cls-3{fill:#927564;}.cls-4{fill:#303040;}.cls-5{fill:#282934;}.cls-14,.cls-6{fill:#22232a;}.cls-6{opacity:0.42;}.cls-7{fill:#363948;}.cls-8{fill:#353841;}.cls-9{fill:#717682;}.cls-10{fill:url(#linear-gradient);}.cls-11{fill:url(#linear-gradient-2);}.cls-12{fill:url(#linear-gradient-3);}.cls-13{fill:url(#linear-gradient-4);}.cls-15{fill:#ebc2b4;}.cls-16{fill:#a8735e;}.cls-17{fill:#976556;}.cls-18{fill:#855849;}.cls-19{fill:#774c41;}.cls-20{fill:#ab7d73;opacity:0.41;}.cls-21{fill:#38302d;}.cls-22{fill:#4d4442;}.cls-23{fill:#3d3533;}.cls-24{fill:#584e4c;}.cls-25{fill:#fff;fill-rule:evenodd;}</style><linearGradient id="linear-gradient" x1="248.02" y1="308.11" x2="253.64" y2="308.11" gradientUnits="userSpaceOnUse"><stop offset="0" stop-color="#fff"/><stop offset="0.2" stop-color="#c3c3c3" stop-opacity="0.76"/><stop offset="0.49" stop-color="#707070" stop-opacity="0.44"/><stop offset="0.73" stop-color="#343434" stop-opacity="0.2"/><stop offset="0.91" stop-color="#0e0e0e" stop-opacity="0.06"/><stop offset="1" stop-opacity="0"/></linearGradient><linearGradient id="linear-gradient-2" x1="253.58" y1="309.67" x2="250.91" y2="308.29" xlink:href="#linear-gradient"/><linearGradient id="linear-gradient-3" x1="249.01" y1="329.08" x2="254.64" y2="329.08" xlink:href="#linear-gradient"/><linearGradient id="linear-gradient-4" x1="254.57" y1="330.64" x2="251.9" y2="329.26" xlink:href="#linear-gradient"/></defs><title>desk4</title><ellipse class="cls-1" cx="213.02" cy="332.34" rx="213.02" ry="33"/><polygon class="cls-2" points="208.38 169.43 208.37 190.93 282.85 190.58 282.5 168.03 208.38 169.43"/><path class="cls-3" d="M220,331.2a125.68,125.68,0,0,0,21.67,2.36c11.48.53,27.67-6,35.5-1.83a17.37,17.37,0,0,0,11,1.39l-.53-16.43-73.77,1.4-.53,15.21C214.19,332,217.18,330.7,220,331.2Z" transform="translate(-5.24 -148.66)"/><rect class="cls-4" x="214.98" y="168.9" width="4.96" height="20.98"/><rect class="cls-4" x="255.71" y="168.11" width="4.96" height="21.76"/><path class="cls-5" d="M220.22,331.2a10.89,10.89,0,0,0,4.87.7l.18-5.07a24,24,0,0,1-5.4-1.22Z" transform="translate(-5.24 -148.66)"/><path class="cls-5" d="M260.9,329.54s3.79-.26,5-.52v1.61s-3.43-.08-5,.61Z" transform="translate(-5.24 -148.66)"/><path class="cls-5" d="M281.3,325.87l.05,7.12a8,8,0,0,0,4.91-.35v-8.17A33.34,33.34,0,0,1,281.3,325.87Z" transform="translate(-5.24 -148.66)"/><rect class="cls-4" x="235.12" y="168.9" width="4.98" height="20.98"/><path class="cls-6" d="M254.18,309.66l-2.41,33.25a17.11,17.11,0,0,1-18.9,15.73c-8.86-.93-18-3.49-23.57-6.58L211,340.49Z" transform="translate(-5.24 -148.66)"/><path class="cls-6" d="M250.71,319.58s.93,19.87,3.29,30.62a8.57,8.57,0,0,0,7.42,6.71c9.14,1,27.45,2.72,32.35.27L290.13,338Z" transform="translate(-5.24 -148.66)"/><path class="cls-7" d="M225.17,315.11s-8.18.75-14.38-2.23a3.06,3.06,0,0,0-1,2.73s12.42,3.17,15.38,2Z" transform="translate(-5.24 -148.66)"/><path class="cls-7" d="M274.26,316.6s13.39,1,19.1-2.73c0,0,1.73,2.24.74,3.23,0,0-13.14,3.72-19.59,2.48C274.51,319.58,272.78,318.59,274.26,316.6Z" transform="translate(-5.24 -148.66)"/><path class="cls-8" d="M254.67,308.56a3.47,3.47,0,1,1-3.57-3.36A3.47,3.47,0,0,1,254.67,308.56Z" transform="translate(-5.24 -148.66)"/><path class="cls-9" d="M254.3,308.11a3.47,3.47,0,1,1-3.47-3.47A3.47,3.47,0,0,1,254.3,308.11Z" transform="translate(-5.24 -148.66)"/><path class="cls-10" d="M253.64,308.11a2.81,2.81,0,1,1-2.81-2.81A2.81,2.81,0,0,1,253.64,308.11Z" transform="translate(-5.24 -148.66)"/><path class="cls-11" d="M250,310s3-.74,3-2.85c0,0,1.05,2.14-.74,3A1.91,1.91,0,0,1,250,310Z" transform="translate(-5.24 -148.66)"/><path class="cls-8" d="M255.67,329.54a3.47,3.47,0,1,1-3.58-3.37A3.48,3.48,0,0,1,255.67,329.54Z" transform="translate(-5.24 -148.66)"/><path class="cls-9" d="M255.3,329.08a3.48,3.48,0,1,1-3.48-3.47A3.47,3.47,0,0,1,255.3,329.08Z" transform="translate(-5.24 -148.66)"/><path class="cls-12" d="M254.64,329.08a2.82,2.82,0,1,1-2.82-2.81A2.81,2.81,0,0,1,254.64,329.08Z" transform="translate(-5.24 -148.66)"/><path class="cls-13" d="M251,330.94s3-.74,3-2.85c0,0,1,2.14-.74,3A1.91,1.91,0,0,1,251,330.94Z" transform="translate(-5.24 -148.66)"/><polygon class="cls-14" points="190.08 99.99 187.87 94.88 183.3 119.3 194.33 136.74 188.08 132.99 181.08 123.49 175.08 130.99 174.58 135.74 172.83 130.24 181.08 121.24 184.83 99.49 188.33 89.24 188.08 80.99 189.83 83.49 190.83 95.74 190.08 99.99"/><polygon class="cls-15" points="235.66 171.66 249.33 163.66 245.48 153.57 241.66 163.66 232.33 167.99 212.98 167.73 214.33 170.66 235.66 171.66"/><rect class="cls-16" x="24.13" y="177.16" width="373.86" height="157.33"/><path class="cls-17" d="M66.75,376.21c29.41-9.79,271.73-15,336.48-16.17V325.82H29.37V483.15H41.59C40.4,466.38,36.35,386.33,66.75,376.21Z" transform="translate(-5.24 -148.66)"/><path class="cls-18" d="M13.51,313.56v9.79a9.26,9.26,0,0,0,9.26,9.27H409.54a6.15,6.15,0,0,0,6.15-6.15v-16a6.15,6.15,0,0,0-6.15-6.15H22.77A9.26,9.26,0,0,0,13.51,313.56Z" transform="translate(-5.24 -148.66)"/><path class="cls-19" d="M50.89,319c-15.13-2.52-23.59-9.25-28.12-14.73h0a9.26,9.26,0,0,0-9.26,9.27v9.79a9.26,9.26,0,0,0,9.26,9.27H409.54a6.15,6.15,0,0,0,6.15-6.15h0a6.14,6.14,0,0,0-6.2-6.15C336.67,321,74.29,322.92,50.89,319Z" transform="translate(-5.24 -148.66)"/><path class="cls-20" d="M386.66,373.64s6.45,88.85-4.11,95.08c-6.66,3.93-48.46,4.08-78.37,3.65-18.57-.27-22.07-26.53-4.21-31.65,1.51-.44,3.1-.85,4.77-1.25,42.54-10.14,38.14-12.65,50.58-32.39S359,360.77,386.66,373.64Z" transform="translate(-5.24 -148.66)"/><rect class="cls-21" x="115.11" y="146.7" width="196.21" height="9.17"/><polygon class="cls-22" points="114.5 146.7 92.49 0 323.55 0 311.33 146.7 114.5 146.7"/><path class="cls-23" d="M119.74,295.37H316.56l1.14-13.64-164.95-1s-19.56,4.89-23.23-39.12c-2.94-35.21-19.15-77.42-25.53-92.92H97.73Z" transform="translate(-5.24 -148.66)"/><path class="cls-24" d="M244.44,151.11H323.9L317.79,222s-2.45-33-15.9-37.89-12.22-18.34-25.67-19.56S244.44,151.11,244.44,151.11Z" transform="translate(-5.24 -148.66)"/><path class="cls-25" d="M215.6,210.77a6.8,6.8,0,0,1,5-2.77,6.78,6.78,0,0,1-1.65,5.08,5.34,5.34,0,0,1-4.73,2.23A5.87,5.87,0,0,1,215.6,210.77Z" transform="translate(-5.24 -148.66)"/><path class="cls-25" d="M214.48,217.13c1.08,0,3.07-1.48,5.67-1.48a7.1,7.1,0,0,1,6.23,3.18,6.91,6.91,0,0,0-3.44,6,7.09,7.09,0,0,0,4.29,6.48s-3,8.43-7,8.43c-1.85,0-3.3-1.25-5.26-1.25s-4,1.29-5.26,1.29c-3.7,0-8.36-8-8.36-14.42s3.95-9.64,7.65-9.64C211.36,215.74,213.23,217.13,214.48,217.13Z" transform="translate(-5.24 -148.66)"/></svg>