<?xml version="1.0" encoding="utf-8"?>
<!-- Generator: Adobe Illustrator 23.0.6, SVG Export Plug-In . SVG Version: 6.00 Build 0)  -->
<svg version="1.1" id="Layer_1" xmlns="http://www.w3.org/2000/svg" xmlns:xlink="http://www.w3.org/1999/xlink" x="0px" y="0px"
	 viewBox="0 0 650 344" style="enable-background:new 0 0 650 344;" xml:space="preserve">
<style type="text/css">
	.st0{fill:#E5E3E3;}
	.st1{fill:#A28571;}
	.st2{fill:#927564;}
	.st3{fill:#303040;}
	.st4{fill:#282934;}
	.st5{opacity:0.42;fill:#22232A;enable-background:new    ;}
	.st6{fill:#363948;}
	.st7{fill:#353841;}
	.st8{fill:#717682;}
	.st9{fill:url(#SVGID_1_);}
	.st10{fill:url(#SVGID_2_);}
	.st11{fill:url(#SVGID_3_);}
	.st12{fill:url(#SVGID_4_);}
	.st13{fill:#22232A;}
	.st14{fill:#EBC2B4;}
	.st15{fill:#A8735E;}
	.st16{fill:#976556;}
	.st17{fill:#855849;}
	.st18{fill:#774C41;}
	.st19{opacity:0.41;fill:#AB7D73;enable-background:new    ;}
	.st20{fill:#38302D;}
	.st21{fill:#4D4442;}
	.st22{fill:#3D3533;}
	.st23{fill:#584E4C;}
</style>
<g transform="translate(0.000000,344.000000) scale(0.100000,-0.100000)">
	<path d="M488,2239c-2-363-1-663,1-665s1241-4,2753-4h2748v665v665H3240H490L488,2239z"/>
</g>
<ellipse class="st0" cx="332.9" cy="402.3" rx="246.1" ry="38.1"/>
<polygon class="st1" points="327.5,214 327.5,238.9 413.5,238.5 413.1,212.4 "/>
<path class="st2" d="M334.9,229.2c8.3,1.6,16.6,2.5,25,2.7c13.3,0.6,32-6.9,41-2.1c3.9,1.9,8.4,2.5,12.7,1.6l-0.6-19l-85.2,1.6
	l-0.6,17.6C328.2,230.1,331.6,228.6,334.9,229.2z"/>
<rect x="335.1" y="213.4" class="st3" width="5.7" height="24.2"/>
<rect x="382.2" y="212.5" class="st3" width="5.7" height="25.1"/>
<path class="st4" d="M335.1,229.2c1.8,0.7,3.7,1,5.6,0.8l0.2-5.9c-2.1-0.2-4.2-0.7-6.2-1.4L335.1,229.2z"/>
<path class="st4" d="M382.1,227.3c0,0,4.4-0.3,5.8-0.6v1.9c0,0-4-0.1-5.8,0.7V227.3z"/>
<path class="st4" d="M405.7,223l0.1,8.2c1.9,0.5,3.9,0.3,5.7-0.4v-9.4C409.6,222.1,407.6,222.6,405.7,223z"/>
<rect x="358.4" y="213.4" class="st3" width="5.8" height="24.2"/>
<path class="st5" d="M374.4,204.3l-2.8,38.4c-0.8,10.9-10.3,19.1-21.2,18.2c-0.2,0-0.4,0-0.6-0.1c-10.2-1.1-20.8-4-27.2-7.6l2-13.4
	L374.4,204.3z"/>
<path class="st5" d="M370.4,215.7c0,0,1.1,23,3.8,35.4c0.9,4.2,4.3,7.3,8.6,7.8c10.6,1.2,31.7,3.1,37.4,0.3l-4.2-22.2L370.4,215.7z"
	/>
<path class="st6" d="M340.8,210.6c0,0-9.5,0.9-16.6-2.6c-0.9,0.8-1.3,2-1.2,3.2c0,0,14.4,3.7,17.8,2.3V210.6z"/>
<path class="st6" d="M397.6,212.3c0,0,15.5,1.2,22.1-3.2c0,0,2,2.6,0.9,3.7c0,0-15.2,4.3-22.6,2.9
	C397.9,215.7,395.9,214.6,397.6,212.3z"/>
<path class="st7" d="M374.9,203c0.1,2.2-1.7,4.1-3.9,4.1s-4.1-1.7-4.1-3.9c-0.1-2.2,1.7-4.1,3.9-4.1c0,0,0,0,0,0
	C373,199.1,374.9,200.8,374.9,203z"/>
<path class="st8" d="M374.5,202.5c0,2.2-1.8,4-4,4s-4-1.8-4-4c0-2.2,1.8-4,4-4S374.5,200.3,374.5,202.5L374.5,202.5z"/>
<linearGradient id="SVGID_1_" gradientUnits="userSpaceOnUse" x1="372.4826" y1="-36.0936" x2="378.9766" y2="-36.0936" gradientTransform="matrix(1 0 0 -1 -5.24 166.4)">
	<stop  offset="0" style="stop-color:#FFFFFF"/>
	<stop  offset="0.2" style="stop-color:#C3C3C3;stop-opacity:0.76"/>
	<stop  offset="0.49" style="stop-color:#707070;stop-opacity:0.44"/>
	<stop  offset="0.73" style="stop-color:#343434;stop-opacity:0.2"/>
	<stop  offset="0.91" style="stop-color:#0E0E0E;stop-opacity:6.000000e-02"/>
	<stop  offset="1" style="stop-color:#000000;stop-opacity:0"/>
</linearGradient>
<path class="st9" d="M373.7,202.5c0,1.8-1.5,3.2-3.2,3.2s-3.2-1.5-3.2-3.2c0-1.8,1.5-3.2,3.2-3.2l0,0
	C372.3,199.2,373.7,200.7,373.7,202.5z"/>
<linearGradient id="SVGID_2_" gradientUnits="userSpaceOnUse" x1="378.9039" y1="-37.9026" x2="375.8188" y2="-36.308" gradientTransform="matrix(1 0 0 -1 -5.24 166.4)">
	<stop  offset="0" style="stop-color:#FFFFFF"/>
	<stop  offset="0.2" style="stop-color:#C3C3C3;stop-opacity:0.76"/>
	<stop  offset="0.49" style="stop-color:#707070;stop-opacity:0.44"/>
	<stop  offset="0.73" style="stop-color:#343434;stop-opacity:0.2"/>
	<stop  offset="0.91" style="stop-color:#0E0E0E;stop-opacity:6.000000e-02"/>
	<stop  offset="1" style="stop-color:#000000;stop-opacity:0"/>
</linearGradient>
<path class="st10" d="M369.5,204.7c0,0,3.5-0.9,3.5-3.3c0,0,1.2,2.5-0.9,3.5C371.3,205.4,370.3,205.3,369.5,204.7z"/>
<path class="st7" d="M376.1,227.3c0.1,2.2-1.7,4.1-3.9,4.1c-2.2,0.1-4.1-1.7-4.1-3.9c-0.1-2.2,1.7-4.1,3.9-4.1
	C374.2,223.3,376,225,376.1,227.3z"/>
<path class="st8" d="M375.7,226.7c0,2.2-1.8,4-4,4c-2.2,0-4-1.8-4-4c0-2.2,1.8-4,4-4c0,0,0,0,0,0
	C373.8,222.7,375.6,224.5,375.7,226.7C375.7,226.7,375.7,226.7,375.7,226.7z"/>
<linearGradient id="SVGID_3_" gradientUnits="userSpaceOnUse" x1="373.6266" y1="-60.336" x2="380.132" y2="-60.336" gradientTransform="matrix(1 0 0 -1 -5.24 166.4)">
	<stop  offset="0" style="stop-color:#FFFFFF"/>
	<stop  offset="0.2" style="stop-color:#C3C3C3;stop-opacity:0.76"/>
	<stop  offset="0.49" style="stop-color:#707070;stop-opacity:0.44"/>
	<stop  offset="0.73" style="stop-color:#343434;stop-opacity:0.2"/>
	<stop  offset="0.91" style="stop-color:#0E0E0E;stop-opacity:6.000000e-02"/>
	<stop  offset="1" style="stop-color:#000000;stop-opacity:0"/>
</linearGradient>
<path class="st11" d="M374.9,226.7c0,1.8-1.4,3.3-3.2,3.3c-1.8,0-3.3-1.4-3.3-3.2c0-1.8,1.4-3.3,3.2-3.3c0,0,0,0,0,0
	C373.4,223.5,374.9,224.9,374.9,226.7C374.9,226.7,374.9,226.7,374.9,226.7z"/>
<linearGradient id="SVGID_4_" gradientUnits="userSpaceOnUse" x1="380.0645" y1="-62.1014" x2="376.9793" y2="-60.5068" gradientTransform="matrix(1 0 0 -1 -5.24 166.4)">
	<stop  offset="0" style="stop-color:#FFFFFF"/>
	<stop  offset="0.2" style="stop-color:#C3C3C3;stop-opacity:0.76"/>
	<stop  offset="0.49" style="stop-color:#707070;stop-opacity:0.44"/>
	<stop  offset="0.73" style="stop-color:#343434;stop-opacity:0.2"/>
	<stop  offset="0.91" style="stop-color:#0E0E0E;stop-opacity:6.000000e-02"/>
	<stop  offset="1" style="stop-color:#000000;stop-opacity:0"/>
</linearGradient>
<path class="st12" d="M370.7,228.9c0,0,3.5-0.9,3.5-3.3c0,0,1.2,2.5-0.9,3.5C372.5,229.6,371.4,229.5,370.7,228.9z"/>
<polygon class="st13" points="306.3,133.8 303.8,127.9 298.5,156.1 311.3,176.3 304,171.9 295.9,161 289,169.6 288.4,175.1 
	286.4,168.8 295.9,158.4 300.3,133.2 304.3,121.4 304,111.8 306.1,114.7 307.2,128.9 "/>
<polygon class="st14" points="359,216.6 374.8,207.4 370.4,195.7 365.9,207.4 355.2,212.4 332.8,212.1 334.4,215.5 "/>
<rect x="114.6" y="223" class="st15" width="432" height="181.8"/>
<path class="st16" d="M157.8,281.2c34-11.3,314-17.3,388.8-18.7V223h-432v181.8h14.1C127.3,385.4,122.7,292.9,157.8,281.2z"/>
<path class="st17" d="M96.3,208.8v11.3c0,5.9,4.8,10.7,10.7,10.7c0,0,0,0,0,0h446.9c3.9,0,7.1-3.2,7.1-7.1v-18.5
	c0-3.9-3.2-7.1-7.1-7.1H107C101.1,198.1,96.3,202.9,96.3,208.8z"/>
<path class="st18" d="M139.5,215.1c-17.5-2.9-27.3-10.7-32.5-17l0,0c-5.9,0-10.7,4.8-10.7,10.7c0,0,0,0,0,0v11.3
	c0,5.9,4.8,10.7,10.7,10.7c0,0,0,0,0,0h446.9c3.9,0,7.1-3.2,7.1-7.1l0,0c0-3.9-3.2-7.1-7.1-7.1c0,0-0.1,0-0.1,0
	C469.7,217.4,166.5,219.6,139.5,215.1z"/>
<path class="st19" d="M527.4,278.2c0,0,7.5,102.7-4.7,109.9c-7.7,4.5-56,4.7-90.6,4.2c-21.5-0.3-25.5-30.7-4.9-36.6
	c1.7-0.5,3.6-1,5.5-1.4c49.2-11.7,44.1-14.6,58.4-37.4S495.5,263.3,527.4,278.2z"/>
<rect x="243.8" y="189.9" class="st20" width="181.7" height="8.5"/>
<polygon class="st21" points="243.2,189.9 222.8,54 436.8,54 425.5,189.9 "/>
<path class="st22" d="M243.2,189.9h182.3l1.1-12.6l-152.8-1c0,0-18.1,4.5-21.5-36.2c-2.7-32.6-17.7-71.6-23.6-86.1h-5.8L243.2,189.9
	z"/>
<path class="st23" d="M358.7,56.3h73.6l-5.7,65.7c0,0-2.3-30.6-14.7-35.1c-12.4-4.5-11.3-17-23.8-18.1
	C375.7,67.6,358.7,56.3,358.7,56.3z"/>
</svg>
