<svg id="Layer_1" data-name="Layer 1" xmlns="http://www.w3.org/2000/svg" xmlns:xlink="http://www.w3.org/1999/xlink" viewBox="0 0 426.04 334.41"><defs><style>.cls-1{fill:#e5e3e3;}.cls-2{fill:#a28571;}.cls-3{fill:#927564;}.cls-4{fill:#303040;}.cls-5{fill:#282934;}.cls-14,.cls-6{fill:#22232a;}.cls-6{opacity:0.42;}.cls-7{fill:#363948;}.cls-8{fill:#353841;}.cls-9{fill:#717682;}.cls-10{fill:url(#linear-gradient);}.cls-11{fill:url(#linear-gradient-2);}.cls-12{fill:url(#linear-gradient-3);}.cls-13{fill:url(#linear-gradient-4);}.cls-15{fill:#ebc2b4;}.cls-16{fill:#a8735e;}.cls-17{fill:#976556;}.cls-18{fill:#855849;}.cls-19{fill:#774c41;}.cls-20{fill:#ab7d73;opacity:0.41;}.cls-21{fill:#38302d;}.cls-22{fill:#4d4442;}.cls-23{fill:#3d3533;}.cls-24{fill:#584e4c;}</style><linearGradient id="linear-gradient" x1="248.02" y1="308.11" x2="253.64" y2="308.11" gradientUnits="userSpaceOnUse"><stop offset="0" stop-color="#fff"/><stop offset="0.2" stop-color="#c3c3c3" stop-opacity="0.76"/><stop offset="0.49" stop-color="#707070" stop-opacity="0.44"/><stop offset="0.73" stop-color="#343434" stop-opacity="0.2"/><stop offset="0.91" stop-color="#0e0e0e" stop-opacity="0.06"/><stop offset="1" stop-opacity="0"/></linearGradient><linearGradient id="linear-gradient-2" x1="253.58" y1="309.67" x2="250.91" y2="308.29" xlink:href="#linear-gradient"/><linearGradient id="linear-gradient-3" x1="249.01" y1="329.08" x2="254.64" y2="329.08" xlink:href="#linear-gradient"/><linearGradient id="linear-gradient-4" x1="254.57" y1="330.64" x2="251.9" y2="329.26" xlink:href="#linear-gradient"/></defs><title>desk</title><ellipse class="cls-1" cx="213.02" cy="301.4" rx="213.02" ry="33"/><polygon class="cls-2" points="208.38 138.49 208.37 160 282.85 159.65 282.5 137.09 208.38 138.49"/><path class="cls-3" d="M220,331.2a125.68,125.68,0,0,0,21.67,2.36c11.48.53,27.67-6,35.5-1.83a17.37,17.37,0,0,0,11,1.39l-.53-16.43-73.77,1.4-.53,15.21C214.19,332,217.18,330.7,220,331.2Z" transform="translate(-5.24 -179.6)"/><rect class="cls-4" x="214.98" y="137.97" width="4.96" height="20.98"/><rect class="cls-4" x="255.71" y="137.18" width="4.96" height="21.76"/><path class="cls-5" d="M220.22,331.2a10.89,10.89,0,0,0,4.87.7l.18-5.07a24,24,0,0,1-5.4-1.22Z" transform="translate(-5.24 -179.6)"/><path class="cls-5" d="M260.9,329.54s3.79-.26,5-.52v1.61s-3.43-.08-5,.61Z" transform="translate(-5.24 -179.6)"/><path class="cls-5" d="M281.3,325.87l.05,7.12a8,8,0,0,0,4.91-.35v-8.17A33.34,33.34,0,0,1,281.3,325.87Z" transform="translate(-5.24 -179.6)"/><rect class="cls-4" x="235.12" y="137.97" width="4.98" height="20.98"/><path class="cls-6" d="M254.18,309.66l-2.41,33.25a17.11,17.11,0,0,1-18.9,15.73c-8.86-.93-18-3.49-23.57-6.58L211,340.49Z" transform="translate(-5.24 -179.6)"/><path class="cls-6" d="M250.71,319.58s.93,19.87,3.29,30.62a8.57,8.57,0,0,0,7.42,6.71c9.14,1,27.45,2.72,32.35.27L290.13,338Z" transform="translate(-5.24 -179.6)"/><path class="cls-7" d="M225.17,315.11s-8.18.75-14.38-2.23a3.06,3.06,0,0,0-1,2.73s12.42,3.17,15.38,2Z" transform="translate(-5.24 -179.6)"/><path class="cls-7" d="M274.26,316.6s13.39,1,19.1-2.73c0,0,1.73,2.24.74,3.23,0,0-13.14,3.72-19.59,2.48C274.51,319.58,272.78,318.59,274.26,316.6Z" transform="translate(-5.24 -179.6)"/><path class="cls-8" d="M254.67,308.56a3.47,3.47,0,1,1-3.57-3.36A3.47,3.47,0,0,1,254.67,308.56Z" transform="translate(-5.24 -179.6)"/><path class="cls-9" d="M254.3,308.11a3.47,3.47,0,1,1-3.47-3.47A3.47,3.47,0,0,1,254.3,308.11Z" transform="translate(-5.24 -179.6)"/><path class="cls-10" d="M253.64,308.11a2.81,2.81,0,1,1-2.81-2.81A2.81,2.81,0,0,1,253.64,308.11Z" transform="translate(-5.24 -179.6)"/><path class="cls-11" d="M250,310s3-.74,3-2.85c0,0,1.05,2.14-.74,3A1.91,1.91,0,0,1,250,310Z" transform="translate(-5.24 -179.6)"/><path class="cls-8" d="M255.67,329.54a3.47,3.47,0,1,1-3.58-3.37A3.48,3.48,0,0,1,255.67,329.54Z" transform="translate(-5.24 -179.6)"/><path class="cls-9" d="M255.3,329.08a3.48,3.48,0,1,1-3.48-3.47A3.47,3.47,0,0,1,255.3,329.08Z" transform="translate(-5.24 -179.6)"/><path class="cls-12" d="M254.64,329.08a2.82,2.82,0,1,1-2.82-2.81A2.81,2.81,0,0,1,254.64,329.08Z" transform="translate(-5.24 -179.6)"/><path class="cls-13" d="M251,330.94s3-.74,3-2.85c0,0,1,2.14-.74,3A1.91,1.91,0,0,1,251,330.94Z" transform="translate(-5.24 -179.6)"/><polygon class="cls-14" points="190.08 69.06 187.87 63.94 183.3 88.36 194.33 105.81 188.08 102.06 181.08 92.56 175.08 100.06 174.58 104.81 172.83 99.31 181.08 90.31 184.83 68.56 188.33 58.31 188.08 50.06 189.83 52.56 190.83 64.81 190.08 69.06"/><polygon class="cls-15" points="235.66 140.73 249.33 132.73 245.48 122.64 241.66 132.73 232.33 137.06 212.98 136.79 214.33 139.73 235.66 140.73"/><rect class="cls-16" x="24.13" y="146.22" width="373.86" height="157.33"/><path class="cls-17" d="M66.75,376.21c29.41-9.79,271.73-15,336.48-16.17V325.82H29.37V483.15H41.59C40.4,466.38,36.35,386.33,66.75,376.21Z" transform="translate(-5.24 -179.6)"/><path class="cls-18" d="M13.51,313.56v9.79a9.26,9.26,0,0,0,9.26,9.27H409.54a6.15,6.15,0,0,0,6.15-6.15v-16a6.15,6.15,0,0,0-6.15-6.15H22.77A9.26,9.26,0,0,0,13.51,313.56Z" transform="translate(-5.24 -179.6)"/><path class="cls-19" d="M50.89,319c-15.13-2.52-23.59-9.25-28.12-14.73h0a9.26,9.26,0,0,0-9.26,9.27v9.79a9.26,9.26,0,0,0,9.26,9.27H409.54a6.15,6.15,0,0,0,6.15-6.15h0a6.14,6.14,0,0,0-6.2-6.15C336.67,321,74.29,322.92,50.89,319Z" transform="translate(-5.24 -179.6)"/><path class="cls-20" d="M386.66,373.64s6.45,88.85-4.11,95.08c-6.66,3.93-48.46,4.08-78.37,3.65-18.57-.27-22.07-26.53-4.21-31.65,1.51-.44,3.1-.85,4.77-1.25,42.54-10.14,38.14-12.65,50.58-32.39S359,360.77,386.66,373.64Z" transform="translate(-5.24 -179.6)"/><rect class="cls-21" x="135.93" y="117.59" width="157.27" height="7.35"/><polygon class="cls-22" points="135.44 117.59 117.8 0 303 0 293.2 117.59 135.44 117.59"/><path class="cls-23" d="M140.68,297.19H298.44l.91-10.93-132.22-.83s-15.68,3.92-18.62-31.36c-2.35-28.22-15.35-62-20.46-74.47h-5Z" transform="translate(-5.24 -179.6)"/><path class="cls-24" d="M240.63,181.56h63.69l-4.9,56.83s-2-26.46-12.74-30.38-9.8-14.69-20.58-15.67S240.63,181.56,240.63,181.56Z" transform="translate(-5.24 -179.6)"/></svg>