<?xml version="1.0" standalone="no"?>
<!DOCTYPE svg PUBLIC "-//W3C//DTD SVG 20010904//EN"
 "http://www.w3.org/TR/2001/REC-SVG-20010904/DTD/svg10.dtd">
<svg version="1.0" xmlns="http://www.w3.org/2000/svg"
 width="254.000000pt" height="198.000000pt" viewBox="0 0 254.000000 198.000000"
 preserveAspectRatio="xMidYMid meet">
<metadata>
Created by potrace 1.15, written by Peter Selinger 2001-2017
</metadata>
<g transform="translate(0.000000,198.000000) scale(0.100000,-0.100000)"
fill="#000000" stroke="none">
<path d="M292 1888 c-9 -9 -12 -151 -12 -577 l0 -566 -141 -180 c-119 -152
-139 -184 -137 -210 3 -28 6 -30 52 -33 36 -2 54 -9 64 -23 11 -16 25 -19 92
-19 69 0 82 3 92 20 13 20 24 20 983 20 959 0 970 0 983 -20 10 -17 23 -20 92
-20 69 0 82 3 92 20 9 14 24 20 50 20 37 0 38 1 38 36 0 31 -19 60 -135 210
l-135 173 0 565 c0 500 -2 566 -16 580 -14 14 -117 16 -983 16 -739 0 -970 -3
-979 -12z m1876 -580 l2 -498 -895 0 -895 0 0 500 0 500 893 -2 892 -3 3 -497z
m-1058 -848 c0 -20 -7 -20 -295 -20 -293 0 -296 0 -285 20 10 19 21 20 295 20
278 0 285 0 285 -20z"/>
<path d="M0 100 l0 -100 1270 0 1270 0 0 100 0 100 -1270 0 -1270 0 0 -100z"/>
</g>
</svg>
