<?xml version="1.0" standalone="no"?>
<!DOCTYPE svg PUBLIC "-//W3C//DTD SVG 20010904//EN"
 "http://www.w3.org/TR/2001/REC-SVG-20010904/DTD/svg10.dtd">
<svg version="1.0" xmlns="http://www.w3.org/2000/svg"
 width="500.000000pt" height="717.000000pt" viewBox="0 0 500.000000 717.000000"
 preserveAspectRatio="xMidYMid meet">
<metadata>
Created by potrace 1.15, written by Peter Selinger 2001-2017
</metadata>
<g transform="translate(0.000000,717.000000) scale(0.100000,-0.100000)"
fill="#000000" stroke="none">
<path d="M1745 6893 c-16 -2 -62 -10 -101 -19 -141 -30 -333 -172 -621 -460
l-183 -182 0 -50 c0 -49 35 -255 66 -394 12 -54 19 -67 36 -70 19 -3 15 -10
-32 -61 l-53 -59 -152 7 c-187 9 -185 10 -185 -105 0 -91 0 -91 92 -110 51
-10 59 -15 64 -38 43 -203 103 -331 199 -429 l71 -72 -63 -40 c-77 -49 -103
-88 -103 -157 0 -99 79 -204 198 -262 29 -15 51 -31 49 -37 -7 -20 -123 -106
-182 -135 -33 -17 -80 -34 -105 -39 -47 -9 -286 -131 -346 -176 -97 -74 -98
-166 -3 -244 41 -34 158 -94 217 -111 70 -21 57 -41 -37 -55 -66 -11 -173 -49
-218 -79 -178 -118 -11 -336 346 -455 52 -17 103 -31 113 -31 10 0 18 -2 18
-5 0 -3 -18 -58 -39 -123 -356 -1065 264 -2214 1349 -2501 195 -51 316 -64
555 -58 175 4 231 9 333 31 720 153 1281 671 1484 1371 153 526 71 1104 -221
1575 -230 369 -602 665 -1011 805 l-106 36 40 190 40 190 36 -6 c33 -6 40 -3
67 28 17 20 45 56 62 81 31 44 35 46 158 85 69 22 130 38 134 35 5 -3 9 -14 9
-24 0 -24 59 -60 99 -60 66 0 93 36 106 142 7 54 10 59 64 102 110 88 171 196
171 302 0 104 -86 311 -168 405 -73 83 -104 94 -263 94 l-137 0 15 45 c7 25
16 57 19 71 4 19 17 31 44 42 49 19 53 44 40 223 -9 125 -14 146 -44 209 -59
124 -144 221 -236 271 -32 17 -60 19 -313 19 l-277 0 -62 55 c-173 155 -290
198 -628 229 -108 10 -338 13 -405 4z m381 -468 c90 -9 180 -35 238 -70 38
-23 72 -34 117 -39 130 -14 146 -27 175 -153 34 -146 16 -270 -56 -387 -17
-27 -29 -50 -28 -52 2 -1 55 -10 118 -19 177 -26 400 -17 545 23 94 26 217 67
328 111 28 11 29 11 22 -21 -21 -103 -21 -104 -108 -162 -45 -30 -113 -83
-151 -118 l-69 -62 -161 32 c-119 23 -214 35 -366 43 l-205 12 -95 82 c-129
112 -227 184 -278 207 -39 18 -46 18 -101 4 -32 -8 -132 -47 -222 -87 -176
-77 -261 -109 -291 -109 -31 0 -21 -15 57 -85 42 -37 74 -69 72 -71 -2 -2 -43
-15 -91 -29 l-89 -26 -58 23 c-33 13 -59 26 -59 30 0 4 16 32 35 63 52 80 52
78 -7 116 l-53 34 123 3 c121 3 123 3 132 28 6 14 10 71 10 127 1 185 15 299
44 364 86 188 160 217 472 188z m1707 -759 c59 -22 106 -63 157 -143 68 -103
113 -222 112 -296 0 -128 -106 -261 -280 -350 -73 -38 -310 -137 -327 -137 -3
0 0 11 5 25 5 13 6 27 1 29 -10 7 -32 -18 -111 -126 -74 -101 -79 -103 -172
-61 l-60 27 7 80 c5 72 4 79 -9 63 -8 -10 -22 -48 -32 -84 -20 -74 -16 -88 34
-112 37 -19 39 6 -19 -283 -94 -474 -216 -877 -379 -1253 -62 -144 -79 -211
-72 -287 l4 -57 -44 -11 c-44 -11 -47 -15 -108 -123 l-64 -111 -22 79 -22 80
29 25 c32 28 46 64 90 229 25 91 29 119 20 138 -22 49 -14 70 38 100 31 17 58
42 70 64 27 47 28 72 2 64 -18 -5 -18 -4 1 72 49 203 71 412 49 468 -6 15 -1
29 19 55 102 131 181 258 203 325 35 105 135 651 122 664 -8 8 -35 -28 -35
-47 0 -23 -109 -512 -130 -583 -11 -36 -42 -100 -69 -142 -79 -120 -430 -592
-516 -692 -149 -175 -321 -358 -384 -411 -83 -69 -133 -79 -367 -71 -182 5
-210 11 -414 84 l-105 38 50 2 c163 8 342 56 493 132 126 63 162 107 293 361
24 47 44 86 45 88 1 2 14 -4 28 -13 24 -16 26 -16 32 -1 12 31 -3 107 -33 164
-31 62 -63 81 -63 38 0 -14 -3 -26 -7 -26 -13 0 -311 193 -392 253 -42 32
-105 83 -140 115 l-65 59 75 147 74 148 70 47 70 47 60 -22 c83 -30 141 -38
177 -23 34 14 58 55 58 99 0 16 2 30 4 30 3 0 46 -11 97 -25 235 -63 445 -52
585 30 67 40 156 143 202 236 48 97 89 247 100 364 l7 80 139 3 139 3 -6 -33
-6 -33 27 35 c56 73 190 205 275 271 83 64 118 81 212 102 42 10 142 6 178 -7z
m-2653 -246 c132 -32 197 -58 204 -83 22 -84 -14 -233 -73 -297 -20 -21 -74
-59 -121 -84 -82 -44 -86 -45 -116 -30 -74 36 -178 174 -210 280 -17 57 -18
139 -2 201 l11 46 111 -6 c61 -3 149 -15 196 -27z m1195 -11 c52 -6 96 -17
105 -25 12 -11 15 -38 14 -117 -1 -191 -43 -303 -151 -410 -67 -66 -91 -76
-183 -76 -135 -1 -263 50 -369 146 -97 88 -156 240 -149 387 l3 61 92 12 c240
32 486 40 638 22z m-917 -342 c85 -155 205 -293 325 -372 52 -35 57 -41 57
-75 0 -52 -29 -80 -85 -80 -24 0 -47 5 -50 10 -3 6 3 10 13 10 11 0 25 6 31
14 20 23 -13 46 -67 46 -79 0 -119 -17 -190 -82 -122 -111 -127 -113 -271
-113 -148 0 -231 22 -300 81 -70 61 -89 128 -56 198 32 67 82 101 273 184 101
45 192 88 203 98 10 9 31 48 46 85 16 38 29 69 30 69 0 0 19 -33 41 -73z
m-147 -779 c-62 -116 -90 -151 -146 -183 -39 -23 -58 -27 -168 -32 -139 -7
-177 -2 -226 28 l-34 21 83 33 c94 38 166 85 230 150 l44 45 91 1 c49 0 106 6
125 13 19 8 39 14 43 15 5 0 -14 -41 -42 -91z m73 -251 c61 -55 181 -146 290
-218 102 -68 185 -128 186 -133 0 -13 -180 0 -274 19 -106 22 -298 88 -325
111 -2 2 4 13 13 23 33 36 13 43 -39 15 -174 -93 -320 -154 -370 -154 -12 0
-68 23 -124 50 -56 28 -106 50 -112 50 -20 0 -7 -16 36 -45 58 -39 56 -60 -5
-59 -64 2 -150 38 -204 85 -44 39 -76 85 -76 109 0 33 149 155 254 208 l39 19
44 -33 c68 -52 137 -68 265 -61 117 7 149 17 229 71 30 20 57 36 62 36 4 0 55
-42 111 -93z m-98 -294 c45 -23 75 -46 79 -58 3 -11 8 -70 12 -131 l6 -111
-59 -16 c-80 -22 -350 -75 -398 -79 -36 -3 -40 -1 -47 27 -7 24 1 57 39 160
l47 130 115 57 c63 31 119 57 124 57 6 1 42 -16 82 -36z m-425 -81 l67 -5 -43
-126 c-49 -145 -35 -137 -172 -98 -94 27 -94 25 -27 168 l47 98 31 -16 c17 -9
61 -18 97 -21z m657 -9 c79 -15 82 -17 82 -43 0 -37 -15 -47 -101 -69 l-74
-19 -6 27 c-4 14 -9 50 -13 79 -5 48 -3 53 12 47 9 -4 54 -14 100 -22z m350
-102 c-87 -161 -164 -284 -198 -317 -46 -46 -192 -118 -305 -150 -111 -32
-318 -44 -429 -24 -229 40 -433 129 -538 236 -61 61 -75 101 -53 147 8 18 28
40 44 50 33 19 142 47 188 47 l32 0 -16 -47 c-15 -43 -15 -47 2 -59 9 -7 65
-24 123 -38 59 -14 108 -30 110 -35 2 -6 13 -22 24 -37 20 -24 25 -26 72 -20
73 10 412 83 469 102 43 14 47 18 47 48 0 36 -10 30 132 71 56 16 57 16 64 61
l6 44 97 1 c53 1 107 4 121 8 51 15 53 -6 8 -88z m662 -616 c0 -8 -12 -17 -27
-21 -65 -14 -162 -45 -168 -54 -6 -10 25 -137 79 -325 19 -66 32 -123 28 -127
-4 -4 -29 65 -55 155 -57 191 -72 230 -89 225 -7 -3 -37 -36 -67 -74 -30 -38
-52 -64 -50 -59 2 6 30 60 62 121 55 107 60 113 107 133 91 39 180 52 180 26z
m428 -18 l47 -12 12 -60 c6 -33 15 -87 18 -120 l6 -60 -87 -152 c-48 -84 -90
-153 -93 -153 -3 0 -42 59 -85 130 -43 72 -80 130 -82 130 -1 0 -9 3 -18 6
-10 4 -20 -5 -30 -25 -23 -44 -20 -58 7 -33 13 12 26 22 30 22 3 0 32 -44 63
-97 80 -138 103 -173 114 -173 12 0 78 100 141 212 l43 78 182 -94 c232 -119
356 -199 347 -222 -5 -15 -2 -16 23 -9 55 15 78 12 91 -16 9 -19 10 -33 1 -55
-9 -25 -5 -55 25 -179 31 -128 141 -709 162 -857 l7 -48 -38 0 c-22 0 -100 9
-174 19 -121 17 -148 24 -255 72 -142 62 -165 76 -165 97 0 9 29 102 65 207
65 190 73 234 89 440 8 98 -6 58 -38 -110 -17 -89 -53 -218 -99 -354 l-72
-213 34 -27 c19 -14 46 -36 60 -48 l26 -21 -99 -294 c-54 -161 -105 -303 -112
-314 -10 -17 -36 -26 -131 -45 -103 -21 -145 -24 -338 -23 -238 0 -329 13
-517 70 l-86 27 -8 86 c-15 184 -14 195 45 316 109 225 173 371 186 425 8 30
30 181 50 335 20 154 46 325 58 380 22 96 26 105 93 191 39 50 97 138 129 195
32 57 59 105 60 107 1 1 28 9 59 17 147 38 228 127 186 205 -9 18 -30 25 -113
44 -22 5 -26 10 -18 20 11 14 107 5 199 -17z m-110 -53 c30 -19 28 -55 -5 -95
-33 -39 -104 -74 -115 -56 -11 17 -10 121 2 152 9 25 13 26 53 20 23 -4 52
-13 65 -21z m-338 7 c0 -22 -44 -149 -62 -178 -32 -53 -44 -42 -63 57 -10 50
-16 92 -14 94 7 7 103 35 122 35 9 1 17 -3 17 -8z m-134 -374 l41 -123 -38
-59 c-37 -60 -38 -62 -78 -345 -82 -571 -72 -531 -201 -805 l-113 -239 6 -149
7 -148 -23 7 c-51 15 -255 122 -306 160 -2 2 15 45 37 96 151 354 220 797 169
1084 -20 113 -40 167 -29 79 4 -33 7 -152 6 -265 0 -171 -4 -222 -22 -307 -34
-159 -24 -151 -119 -89 -57 37 -103 59 -152 71 l-69 17 30 81 c74 203 148 523
148 642 0 29 3 60 6 69 8 22 61 20 107 -3 l37 -19 36 35 c20 19 128 94 238
168 111 73 208 140 215 149 8 9 16 16 20 16 4 0 25 -55 47 -123z m-633 -1170
c25 -17 28 -24 23 -52 -9 -47 -107 -348 -111 -343 -3 2 2 53 10 114 8 60 17
155 21 211 5 71 10 100 18 96 6 -3 24 -15 39 -26z m1816 -197 c46 -10 89 -24
94 -29 6 -6 12 -66 15 -134 l5 -125 -49 -35 c-27 -20 -93 -59 -146 -87 l-98
-51 0 82 c0 92 28 351 41 387 7 17 14 21 31 17 13 -3 61 -14 107 -25z"/>
<path d="M3720 5569 c-48 -19 -92 -62 -192 -187 -56 -70 -130 -163 -166 -207
-63 -77 -64 -78 -16 -32 27 26 55 47 60 47 20 0 66 -43 80 -74 13 -31 13 -30
14 27 0 34 -7 71 -16 89 l-16 31 89 89 88 89 19 -23 c36 -45 76 -137 76 -176
0 -48 -31 -94 -119 -174 -34 -32 -59 -58 -56 -58 3 0 32 17 63 39 69 47 139
120 148 156 12 48 -4 131 -39 208 -32 70 -34 77 -19 91 27 23 69 36 125 36
l52 1 -35 19 c-38 21 -100 25 -140 9z"/>
<path d="M1990 5380 c-30 -4 -82 -21 -115 -39 -53 -28 -56 -31 -25 -25 l35 6
-58 -59 c-32 -33 -55 -62 -51 -65 15 -16 66 19 114 78 l52 64 67 0 c53 0 72 4
84 18 10 10 17 22 17 25 0 8 -44 7 -120 -3z"/>
<path d="M2215 5230 c-3 -5 6 -15 20 -22 24 -11 26 -16 21 -47 -9 -58 -48
-122 -86 -142 -22 -12 -55 -19 -90 -19 -44 0 -58 -4 -67 -19 -10 -16 -9 -20 3
-25 35 -13 93 -5 145 22 66 33 109 91 116 156 6 51 6 50 34 36 43 -23 12 -142
-57 -219 -25 -27 -62 -56 -86 -66 -93 -37 -211 -9 -291 70 -43 41 -59 40 -32
-2 87 -137 269 -157 407 -43 54 44 88 120 88 195 0 67 -12 86 -77 119 -38 19
-40 19 -48 6z"/>
<path d="M2993 2253 c-7 -2 -13 -16 -13 -29 0 -19 -5 -24 -24 -24 -24 0 -36
-28 -36 -86 0 -19 -5 -24 -25 -24 -28 0 -51 21 -77 68 -11 20 -25 32 -37 32
-20 0 -25 -10 -33 -65 -2 -14 -13 -21 -38 -25 l-35 -5 -3 -92 -3 -93 -34 0
c-38 0 -36 3 -55 -130 -28 -208 -41 -382 -29 -396 14 -17 155 -119 211 -153
l37 -22 83 41 c99 50 150 80 160 94 18 27 122 492 113 506 -3 4 -21 11 -40 14
-31 6 -35 10 -29 29 14 43 34 122 34 134 0 6 -14 14 -31 18 -30 7 -31 7 -24
56 5 33 3 54 -5 64 -8 9 -10 28 -6 49 6 29 3 34 -16 40 -26 6 -28 6 -45 -1z
m-293 -472 c0 -81 3 -100 16 -105 31 -12 269 -7 288 7 11 8 19 31 22 72 9 105
9 104 50 95 19 -5 38 -11 42 -14 10 -11 -73 -407 -98 -464 -11 -25 -180 -112
-217 -112 -20 0 -171 96 -211 134 l-23 23 21 209 c27 269 23 254 71 254 l39 0
0 -99z m249 89 l64 0 -7 -67 c-11 -123 1 -114 -150 -111 l-131 3 -3 94 -3 94
83 -6 c46 -4 112 -7 147 -7z"/>
</g>
</svg>
